<?xml version="1.0" encoding="UTF-8" standalone="no"?>
<!DOCTYPE svg PUBLIC "-//W3C//DTD SVG 1.1//EN" "http://www.w3.org/Graphics/SVG/1.1/DTD/svg11.dtd">
<svg version="1.1" xmlns="http://www.w3.org/2000/svg" xmlns:xlink="http://www.w3.org/1999/xlink" preserveAspectRatio="xMidYMid meet" viewBox="0 0 420 180" width="420" height="180"><defs><path d="M219.91 119.73C219.24 120.88 218.3 121.85 217.12 122.62C215.93 123.42 214.47 124.03 212.79 124.47C211.1 124.91 209.23 125.11 207.16 125.11C206.49 125.11 203.16 125.11 197.17 125.11L197.17 91.97C203.97 91.97 207.75 91.97 208.51 91.97C210.19 91.97 211.74 92.16 213.12 92.55C214.5 92.93 215.66 93.46 216.62 94.15C217.59 94.84 218.33 95.64 218.86 96.6C219.38 97.57 219.66 98.62 219.66 99.78C219.66 101.87 219.05 103.56 217.84 104.85C216.62 106.15 214.97 107.12 212.9 107.78C215.3 108.14 217.23 108.99 218.69 110.34C220.15 111.7 220.9 113.52 220.9 115.81C220.9 117.27 220.57 118.57 219.91 119.73ZM211.16 104.36C212.23 103.58 212.79 102.51 212.79 101.13C212.79 99.8 212.32 98.84 211.41 98.2C210.47 97.57 209.23 97.26 207.65 97.26C207.41 97.26 206.19 97.26 203.98 97.26L203.98 105.52L206.96 105.52C209.04 105.26 210.44 104.87 211.16 104.36ZM212.15 111.92C210.91 111.14 209.28 110.79 207.29 110.79C207.07 110.79 205.97 110.79 203.98 110.79L203.98 119.84C206.19 119.84 207.41 119.84 207.65 119.84C209.83 119.84 211.43 119.42 212.48 118.59C213.5 117.77 214.03 116.66 214.03 115.31C214.03 113.82 213.39 112.69 212.15 111.92Z" id="alJ6nV2j9"></path><path d="M253.38 91.97C253.38 104.68 253.38 111.75 253.38 113.16C253.38 115.03 253.07 116.77 252.44 118.32C251.8 119.86 250.92 121.19 249.76 122.26C248.6 123.37 247.17 124.2 245.46 124.8C243.75 125.41 241.84 125.69 239.72 125.69C237.56 125.69 235.63 125.38 233.95 124.8C232.27 124.2 230.83 123.37 229.67 122.26C228.51 121.16 227.6 119.86 227 118.32C226.36 116.77 226.06 115.06 226.06 113.16C226.06 111.75 226.06 104.68 226.06 91.97L233.01 91.97C233.01 104.88 233.01 112.05 233.01 113.49C233.01 115.59 233.56 117.21 234.7 118.4C235.83 119.59 237.51 120.17 239.72 120.17C241.95 120.17 243.61 119.59 244.74 118.4C245.87 117.21 246.42 115.59 246.42 113.49C246.42 112.05 246.42 104.88 246.42 91.97L253.38 91.97Z" id="b3nMJ4m8Hg"></path><path d="M280.47 119.67C279.87 120.88 279.04 121.96 277.96 122.84C276.89 123.73 275.59 124.44 274.04 124.94C272.53 125.44 270.81 125.69 268.97 125.69C267.2 125.69 265.43 125.49 263.67 125.11C261.9 124.72 260.25 124.17 258.76 123.45C258.9 122.92 260.05 118.66 260.19 118.13C261.38 118.68 262.73 119.17 264.19 119.56C265.68 119.95 267.2 120.17 268.75 120.17C270.4 120.17 271.75 119.84 272.8 119.15C273.85 118.46 274.37 117.49 274.37 116.19C274.37 115.01 273.88 114.01 272.88 113.27C271.89 112.5 270.37 111.72 268.3 110.87C266.84 110.26 265.54 109.65 264.41 108.99C263.28 108.36 262.34 107.61 261.57 106.84C260.8 106.04 260.22 105.16 259.81 104.19C259.39 103.22 259.17 102.12 259.17 100.88C259.17 97.82 260.22 95.47 262.29 93.84C264.36 92.22 267.14 91.39 270.62 91.39C272.42 91.39 274.07 91.55 275.56 91.88C277.05 92.22 278.49 92.74 279.89 93.48C279.76 94.02 278.73 98.28 278.6 98.81C277.44 98.26 276.22 97.79 274.93 97.43C273.63 97.07 272.33 96.91 271.01 96.91C269.55 96.91 268.36 97.18 267.48 97.73C266.57 98.29 266.12 99.14 266.12 100.3C266.12 100.82 266.21 101.29 266.34 101.71C266.48 102.09 266.76 102.48 267.17 102.84C267.56 103.2 268.08 103.53 268.75 103.89C269.38 104.25 270.21 104.63 271.2 105.05C272.53 105.6 273.79 106.2 275.01 106.84C276.22 107.47 277.3 108.19 278.21 109.02C279.15 109.85 279.89 110.81 280.44 111.92C281.08 112.97 281.36 114.23 281.36 115.64C281.36 117.1 281.05 118.46 280.47 119.67Z" id="c2i0iWEeYO"></path><path d="M286.74 125.11L286.74 91.97L293.69 91.97L293.69 125.11L286.74 125.11Z" id="e5BMJtIENN"></path><path d="M307.57 103.42L307.57 125.11L300.89 125.11L300.89 91.97L307.57 91.97L323.05 113.66L323.05 91.97L329.73 91.97L329.73 125.11L323.05 125.11L307.57 103.42Z" id="d4a0Nh2SuW"></path><path d="M356.57 91.97L356.57 97.49L343.63 97.49L343.63 105.49L355.97 105.49L355.97 111.01L343.63 111.01L343.63 119.56L356.71 119.56L356.71 125.08L336.65 125.08L336.65 91.97L356.57 91.97Z" id="e7vjczRD2P"></path><path d="M383.04 119.67C382.43 120.88 381.6 121.96 380.53 122.84C379.45 123.73 378.15 124.44 376.61 124.94C375.09 125.44 373.38 125.69 371.53 125.69C369.76 125.69 368 125.49 366.23 125.11C364.47 124.72 362.81 124.17 361.32 123.45C361.46 122.92 362.61 118.66 362.76 118.13C363.94 118.68 365.29 119.17 366.76 119.56C368.25 119.95 369.76 120.17 371.31 120.17C372.97 120.17 374.32 119.84 375.37 119.15C376.41 118.46 376.94 117.49 376.94 116.19C376.94 115.01 376.44 114.01 375.45 113.27C374.46 112.5 372.94 111.72 370.87 110.87C369.41 110.26 368.11 109.65 366.98 108.99C365.85 108.36 364.91 107.61 364.14 106.84C363.36 106.04 362.78 105.16 362.37 104.19C361.96 103.22 361.73 102.12 361.73 100.88C361.73 97.82 362.78 95.47 364.85 93.84C366.92 92.22 369.71 91.39 373.19 91.39C374.98 91.39 376.64 91.55 378.13 91.88C379.62 92.22 381.05 92.74 382.46 93.48C382.33 94.02 381.29 98.28 381.16 98.81C380 98.26 378.79 97.79 377.49 97.43C376.19 97.07 374.9 96.91 373.57 96.91C372.11 96.91 370.92 97.18 370.04 97.73C369.13 98.29 368.69 99.14 368.69 100.3C368.69 100.82 368.77 101.29 368.91 101.71C369.05 102.09 369.32 102.48 369.74 102.84C370.12 103.2 370.65 103.53 371.31 103.89C371.94 104.25 372.77 104.63 373.77 105.05C375.09 105.6 376.36 106.2 377.57 106.84C378.79 107.47 379.86 108.19 380.77 109.02C381.71 109.85 382.46 110.81 383.01 111.92C383.64 112.97 383.92 114.23 383.92 115.64C383.92 117.1 383.62 118.46 383.04 119.67Z" id="fwlAjvL4x"></path><path d="M409.11 119.67C408.51 120.88 407.68 121.96 406.6 122.84C405.53 123.73 404.23 124.44 402.68 124.94C401.17 125.44 399.45 125.69 397.61 125.69C395.84 125.69 394.07 125.49 392.31 125.11C390.54 124.72 388.89 124.17 387.4 123.45C387.54 122.92 388.69 118.66 388.83 118.13C390.02 118.68 391.37 119.17 392.83 119.56C394.32 119.95 395.84 120.17 397.39 120.17C399.04 120.17 400.39 119.84 401.44 119.15C402.49 118.46 403.01 117.49 403.01 116.19C403.01 115.01 402.52 114.01 401.52 113.27C400.53 112.5 399.01 111.72 396.94 110.87C395.48 110.26 394.18 109.65 393.05 108.99C391.92 108.36 390.98 107.61 390.21 106.84C389.44 106.04 388.86 105.16 388.45 104.19C388.03 103.22 387.81 102.12 387.81 100.88C387.81 97.82 388.86 95.47 390.93 93.84C393 92.22 395.79 91.39 399.26 91.39C401.06 91.39 402.71 91.55 404.2 91.88C405.69 92.22 407.13 92.74 408.53 93.48C408.4 94.02 407.37 98.28 407.24 98.81C406.08 98.26 404.86 97.79 403.57 97.43C402.3 97.07 400.97 96.91 399.65 96.91C398.19 96.91 397 97.18 396.12 97.73C395.21 98.29 394.76 99.14 394.76 100.3C394.76 100.82 394.85 101.29 394.98 101.71C395.12 102.09 395.4 102.48 395.81 102.84C396.2 103.2 396.72 103.53 397.39 103.89C398.02 104.25 398.85 104.63 399.84 105.05C401.17 105.6 402.44 106.2 403.65 106.84C404.86 107.47 405.94 108.19 406.85 109.02C407.79 109.85 408.53 110.81 409.09 111.92C409.69 112.97 410 114.23 410 115.64C410 117.1 409.69 118.46 409.11 119.67Z" id="irM89uBqy"></path><path d="M213.12 80.6C212.65 81.45 212.01 82.2 211.16 82.81C210.3 83.41 209.31 83.88 208.12 84.21C206.94 84.54 205.64 84.71 204.18 84.71C203.71 84.71 201.37 84.71 197.17 84.71L197.17 59.9C201.79 59.9 204.35 59.9 204.87 59.9C206.05 59.9 207.16 60.04 208.15 60.32C209.14 60.59 210 61.01 210.72 61.53C211.43 62.06 211.99 62.69 212.34 63.44C212.73 64.18 212.92 65.01 212.92 65.89C212.92 67.33 212.45 68.54 211.49 69.51C210.52 70.47 209.31 71.22 207.82 71.71C209.67 72.07 211.13 72.73 212.21 73.76C213.28 74.8 213.81 76.13 213.81 77.78C213.81 78.8 213.59 79.74 213.12 80.6ZM205.97 70.25C206.72 70.06 207.32 69.78 207.87 69.4C208.4 69.04 208.81 68.6 209.12 68.07C209.42 67.55 209.56 66.97 209.56 66.31C209.56 65.06 209.09 64.15 208.15 63.55C207.21 62.94 206 62.64 204.51 62.64C204.24 62.64 202.87 62.64 200.42 62.64L200.42 70.55L203.6 70.55C204.68 70.48 205.47 70.38 205.97 70.25ZM210 75.71C209.64 75.16 209.17 74.69 208.59 74.33C208.01 73.98 207.29 73.7 206.49 73.53C205.69 73.37 204.84 73.29 203.96 73.29C203.72 73.29 202.55 73.29 200.45 73.29L200.45 82.01C202.84 82.01 204.16 82.01 204.43 82.01C206.3 82.01 207.79 81.65 208.9 80.9C209.97 80.18 210.52 79.08 210.52 77.67C210.52 76.93 210.36 76.29 210 75.71Z" id="aJX2fl0v5"></path><path d="M223.99 84.1C222.47 83.41 221.2 82.47 220.18 81.32C219.16 80.16 218.39 78.78 217.86 77.23C217.34 75.66 217.06 74.03 217.06 72.32C217.06 70.61 217.34 68.98 217.86 67.41C218.39 65.84 219.16 64.48 220.18 63.32C221.2 62.17 222.47 61.23 223.99 60.54C225.51 59.85 227.22 59.49 229.15 59.49C231.08 59.49 232.82 59.85 234.34 60.54C235.85 61.23 237.12 62.17 238.14 63.32C239.17 64.48 239.94 65.86 240.46 67.41C240.99 68.98 241.26 70.61 241.26 72.32C241.26 74.03 240.99 75.66 240.46 77.23C239.94 78.8 239.17 80.16 238.14 81.32C237.12 82.47 235.85 83.41 234.34 84.1C232.82 84.82 231.08 85.15 229.15 85.15C227.22 85.15 225.48 84.79 223.99 84.1ZM232.9 81.65C234.01 81.12 234.89 80.41 235.63 79.49C236.35 78.58 236.9 77.51 237.26 76.27C237.62 75.02 237.81 73.73 237.81 72.35C237.81 70.97 237.62 69.64 237.26 68.43C236.87 67.19 236.35 66.14 235.63 65.23C234.92 64.32 234.01 63.6 232.9 63.08C231.8 62.55 230.56 62.28 229.15 62.28C227.74 62.28 226.47 62.55 225.4 63.08C224.29 63.6 223.41 64.32 222.66 65.23C221.95 66.14 221.4 67.22 221.04 68.43C220.65 69.67 220.48 70.97 220.48 72.35C220.48 73.73 220.68 75.05 221.04 76.27C221.42 77.51 221.95 78.56 222.66 79.49C223.38 80.41 224.29 81.12 225.4 81.65C226.47 82.14 227.74 82.42 229.15 82.42C230.56 82.42 231.83 82.17 232.9 81.65Z" id="b3mX1rAx22"></path><path d="M251.55 84.1C250.04 83.41 248.77 82.47 247.75 81.32C246.73 80.16 245.95 78.78 245.43 77.23C244.9 75.66 244.63 74.03 244.63 72.32C244.63 70.61 244.9 68.98 245.43 67.41C245.95 65.84 246.73 64.48 247.75 63.32C248.77 62.17 250.04 61.23 251.55 60.54C253.07 59.85 254.78 59.49 256.71 59.49C258.65 59.49 260.38 59.85 261.9 60.54C263.42 61.23 264.69 62.17 265.71 63.32C266.73 64.48 267.5 65.86 268.03 67.41C268.55 68.98 268.83 70.61 268.83 72.32C268.83 74.03 268.55 75.66 268.03 77.23C267.5 78.8 266.73 80.16 265.71 81.32C264.69 82.47 263.42 83.41 261.9 84.1C260.36 84.82 258.65 85.15 256.71 85.15C254.78 85.15 253.04 84.79 251.55 84.1ZM260.47 81.65C261.57 81.12 262.45 80.41 263.2 79.49C263.92 78.58 264.47 77.51 264.83 76.27C265.19 75.02 265.38 73.73 265.38 72.35C265.38 70.97 265.19 69.64 264.83 68.43C264.44 67.19 263.92 66.14 263.2 65.23C262.48 64.32 261.57 63.6 260.47 63.08C259.36 62.55 258.12 62.28 256.71 62.28C255.31 62.28 254.04 62.55 252.96 63.08C251.86 63.6 250.98 64.32 250.23 65.23C249.51 66.14 248.96 67.22 248.6 68.43C248.22 69.67 248.05 70.97 248.05 72.35C248.05 73.73 248.24 75.05 248.6 76.27C248.99 77.51 249.51 78.56 250.23 79.49C250.95 80.41 251.86 81.12 252.96 81.65C254.04 82.14 255.28 82.42 256.71 82.42C258.12 82.42 259.39 82.17 260.47 81.65Z" id="g3N6Xy8cUE"></path><path d="M287.07 81.15C286.6 82.01 285.99 82.72 285.19 83.3C284.42 83.91 283.48 84.35 282.43 84.68C281.38 85.01 280.25 85.18 279.04 85.18C277.85 85.18 276.61 85.07 275.37 84.82C274.13 84.57 272.97 84.21 271.92 83.72C271.98 83.44 272.51 81.26 272.58 80.98C273.49 81.4 274.51 81.76 275.62 82.03C276.72 82.31 277.82 82.45 278.95 82.45C280.56 82.45 281.88 82.12 282.87 81.43C283.87 80.74 284.36 79.77 284.36 78.47C284.36 77.76 284.23 77.15 283.92 76.62C283.65 76.13 283.26 75.66 282.74 75.25C282.24 74.83 281.66 74.47 281 74.14C280.33 73.81 279.64 73.48 278.9 73.15C278.04 72.76 277.24 72.35 276.47 71.91C275.7 71.46 275.01 70.97 274.4 70.42C273.79 69.86 273.33 69.23 272.97 68.51C272.61 67.8 272.42 66.97 272.42 66.03C272.42 64.95 272.61 64.01 272.99 63.19C273.38 62.36 273.93 61.7 274.62 61.15C275.31 60.59 276.14 60.18 277.11 59.9C278.07 59.63 279.15 59.49 280.31 59.49C281.49 59.49 282.65 59.63 283.78 59.9C284.91 60.18 285.91 60.54 286.74 60.98C286.67 61.25 286.16 63.44 286.1 63.71C285.3 63.3 284.39 62.94 283.37 62.66C282.35 62.39 281.33 62.25 280.28 62.25C277.27 62.25 275.78 63.41 275.78 65.75C275.78 66.28 275.86 66.72 276 67.11C276.14 67.49 276.39 67.85 276.72 68.18C277.05 68.51 277.49 68.84 278.07 69.15C278.62 69.45 279.31 69.81 280.11 70.2C280.91 70.58 281.74 71.02 282.65 71.49C283.54 71.96 284.36 72.49 285.11 73.12C285.85 73.76 286.46 74.5 286.96 75.33C287.51 76.18 287.76 77.15 287.76 78.28C287.76 79.36 287.54 80.29 287.07 81.15Z" id="aE8sxNSVg"></path><path d="M307.98 62.72L300.67 62.72L300.67 84.74L297.25 84.74L297.25 62.72L289.96 62.72L289.96 59.93L307.98 59.93L307.98 62.72Z" id="a1wmarRs5S"></path><path d="M336.71 59.93L328.54 74.94L328.54 84.74L325.12 84.74L325.12 74.94L316.95 59.93L320.59 59.93L326.8 71.77L333.07 59.93L336.71 59.93Z" id="b3uKgapJo"></path><path d="M345.54 84.1C344.02 83.41 342.75 82.47 341.73 81.32C340.71 80.16 339.94 78.78 339.41 77.23C338.89 75.66 338.61 74.03 338.61 72.32C338.61 70.61 338.89 68.98 339.41 67.41C339.94 65.84 340.71 64.48 341.73 63.32C342.75 62.17 344.02 61.23 345.54 60.54C347.06 59.85 348.77 59.49 350.7 59.49C352.63 59.49 354.37 59.85 355.89 60.54C357.4 61.23 358.67 62.17 359.69 63.32C360.71 64.48 361.49 65.86 362.01 67.41C362.54 68.98 362.81 70.61 362.81 72.32C362.81 74.03 362.54 75.66 362.01 77.23C361.49 78.8 360.71 80.16 359.69 81.32C358.67 82.47 357.4 83.41 355.89 84.1C354.34 84.82 352.63 85.15 350.7 85.15C348.77 85.15 347.03 84.79 345.54 84.1ZM354.45 81.65C355.55 81.12 356.44 80.41 357.18 79.49C357.9 78.58 358.45 77.51 358.81 76.27C359.17 75.02 359.36 73.73 359.36 72.35C359.36 70.97 359.17 69.64 358.81 68.43C358.42 67.19 357.9 66.14 357.18 65.23C356.46 64.32 355.55 63.6 354.45 63.08C353.35 62.55 352.1 62.28 350.7 62.28C349.29 62.28 348.02 62.55 346.94 63.08C345.84 63.6 344.96 64.32 344.21 65.23C343.5 66.14 342.94 67.22 342.59 68.43C342.2 69.67 342.03 70.97 342.03 72.35C342.03 73.73 342.23 75.05 342.59 76.27C342.97 77.51 343.5 78.56 344.21 79.49C344.93 80.41 345.84 81.12 346.94 81.65C348.02 82.14 349.26 82.42 350.7 82.42C352.1 82.42 353.37 82.17 354.45 81.65Z" id="b22TQViFYC"></path><path d="M386.73 59.93C386.73 69.53 386.73 74.87 386.73 75.94C386.73 77.23 386.51 78.45 386.1 79.58C385.69 80.71 385.05 81.67 384.22 82.53C383.4 83.36 382.4 84.02 381.19 84.49C379.97 84.96 378.59 85.21 376.99 85.21C375.39 85.21 374.01 84.96 372.8 84.49C371.59 84.02 370.59 83.36 369.76 82.53C368.94 81.7 368.33 80.71 367.89 79.58C367.47 78.45 367.25 77.23 367.25 75.94C367.25 74.87 367.25 69.53 367.25 59.93L370.68 59.93C370.68 69.63 370.68 75.02 370.68 76.1C370.68 77.95 371.2 79.47 372.25 80.65C373.3 81.81 374.87 82.39 376.97 82.39C379.06 82.39 380.61 81.81 381.68 80.65C382.73 79.49 383.26 77.98 383.26 76.1C383.26 75.02 383.26 69.63 383.26 59.93L386.73 59.93Z" id="i1cnvsraJ7"></path><path d="M392.56 84.71L392.56 59.9C396.43 59.9 398.58 59.9 399.01 59.9C400.37 59.9 401.61 60.04 402.77 60.34C403.93 60.65 404.92 61.09 405.8 61.67C406.68 62.25 407.35 62.99 407.84 63.88C408.34 64.76 408.59 65.78 408.59 66.91C408.59 68.62 408.04 70.11 406.93 71.38C405.83 72.65 404.28 73.56 402.3 74.14C402.88 74.85 405.8 78.37 411.04 84.71L406.85 84.71C402 78.72 399.3 75.39 398.77 74.72C398.65 74.72 398.46 74.72 398.21 74.75C397.96 74.75 397.69 74.78 397.44 74.78C397.16 74.78 396.89 74.78 396.64 74.78C396.39 74.78 396.17 74.78 396.03 74.78C396.03 75.44 396.03 78.75 396.03 84.71L392.56 84.71ZM404.64 65.01C404.31 64.46 403.84 64.01 403.29 63.66C402.71 63.32 402.05 63.08 401.33 62.91C400.59 62.75 399.81 62.66 398.99 62.66C398.79 62.66 397.79 62.66 396.01 62.66L396.01 72.02C397.03 72.02 397.6 72.02 397.72 72.02C398.77 72.02 399.73 71.91 400.64 71.71C401.55 71.52 402.32 71.22 403.01 70.8C403.68 70.39 404.2 69.86 404.59 69.23C404.95 68.62 405.14 67.85 405.14 66.99C405.14 66.22 404.97 65.56 404.64 65.01Z" id="h6kyd2q8M"></path><path d="M113.7 92.41C116.1 93.48 118.5 94.56 120.9 95.61C121.26 94.64 121.62 93.68 121.98 92.74C105.92 99.44 89.86 106.15 73.8 112.83C71.45 113.79 69.14 114.79 66.79 115.75C63.01 117.33 66.4 119.86 69.41 118.59C85.47 111.89 101.53 105.18 117.59 98.51C119.93 97.54 122.25 96.55 124.6 95.58C125.62 95.17 127.47 93.51 125.67 92.71C108.51 85.07 91.32 77.43 74.16 69.78C71.76 68.71 69.36 67.63 66.96 66.58C65.6 65.97 63.81 66.17 62.57 66.94C61.68 67.49 60.8 68.87 62.18 69.48C62.18 69.48 62.18 69.48 62.18 69.48C85.08 79.67 102.26 87.31 113.7 92.41Z" id="hgMbRwWh8"></path><path d="M83.62 92.41C86.02 93.48 88.42 94.56 90.82 95.61C91.18 94.64 91.54 93.68 91.9 92.74C75.84 99.44 59.78 106.15 43.72 112.83C41.38 113.79 39.06 114.79 36.71 115.75C32.93 117.33 36.33 119.86 39.33 118.59C55.39 111.89 71.45 105.18 87.51 98.51C89.86 97.54 92.18 96.55 94.52 95.58C95.54 95.17 97.39 93.51 95.6 92.71C78.43 85.07 61.24 77.43 44.08 69.78C41.68 68.71 39.28 67.63 36.88 66.58C35.53 65.97 33.73 66.17 32.49 66.94C31.64 67.49 30.73 68.87 32.1 69.48C32.1 69.48 32.1 69.48 32.1 69.48C55.01 79.67 72.18 87.31 83.62 92.41Z" id="aiRe76ckE"></path><path d="M143 92.41C145.4 93.48 147.8 94.56 150.2 95.61C150.56 94.64 150.92 93.68 151.28 92.74C135.22 99.44 119.16 106.15 103.1 112.83C100.76 113.79 98.44 114.79 96.09 115.75C92.31 117.33 95.71 119.86 98.72 118.59C114.77 111.89 130.83 105.18 146.89 98.51C149.24 97.54 151.56 96.55 153.9 95.58C154.92 95.17 156.77 93.51 154.98 92.71C137.81 85.07 120.62 77.43 103.46 69.78C101.06 68.71 98.66 67.63 96.26 66.58C94.91 65.97 93.11 66.17 91.87 66.94C90.99 67.49 90.11 68.87 91.49 69.48C91.49 69.48 91.49 69.48 91.49 69.48C114.39 79.67 131.56 87.31 143 92.41Z" id="cbDtI2kyf"></path><path d="M149.93 142.16C140.82 151.84 129.15 159.07 116.43 162.69C103.74 166.36 90.11 166.66 77.36 163.41C74.18 162.58 71.04 161.61 68 160.34C66.46 159.76 65 159.05 63.51 158.36C62.76 158.03 62.04 157.61 61.33 157.25C60.61 156.87 59.86 156.51 59.17 156.09C53.49 152.84 48.19 148.89 43.56 144.31C48.3 148.81 53.66 152.62 59.39 155.74C60.08 156.15 60.83 156.48 61.57 156.84C62.32 157.2 63.04 157.58 63.78 157.91C65.27 158.55 66.76 159.24 68.31 159.79C71.34 160.98 74.49 161.86 77.63 162.63C90.3 165.59 103.71 165.01 116.04 161.14C128.41 157.34 139.58 150.05 148.19 140.5C156.8 130.96 162.81 119.12 165.35 106.59C165.52 105.71 166.4 105.13 167.28 105.29C168.17 105.46 168.75 106.34 168.58 107.23C168.5 107.23 168.5 107.25 168.5 107.28C168.5 107.28 168.5 107.28 168.5 107.28C162.19 124.08 156 135.7 149.93 142.16Z" id="a6ASk23kp4"></path><path d="M120.35 171.52C115.11 173.17 109.67 174.19 104.23 174.88C101.5 175.08 98.77 175.41 96.01 175.35C95.8 175.35 94.15 175.35 93.94 175.35C93.25 175.35 92.56 175.38 91.9 175.33C91.49 175.3 88.2 175.08 87.79 175.05C82.35 174.5 76.92 173.62 71.7 171.99C71.51 171.93 69.94 171.49 69.74 171.44C69.08 171.24 68.45 170.99 67.81 170.77C67.55 170.68 66.28 170.21 63.98 169.37C61.72 168.37 60.47 167.82 60.22 167.71C59.62 167.43 58.98 167.19 58.37 166.86C58.19 166.76 56.76 165.99 56.58 165.89C51.7 163.43 47.2 160.34 42.92 157C42.61 156.74 40.12 154.65 39.8 154.38C38.78 153.5 37.84 152.51 36.85 151.6C36.7 151.46 35.53 150.33 35.39 150.19C34.92 149.72 34.48 149.2 34.01 148.7C33.83 148.5 32.92 147.5 31.28 145.69C32.97 147.46 33.9 148.45 34.09 148.64C34.56 149.14 35 149.64 35.5 150.11C35.65 150.24 36.84 151.35 36.99 151.49C38.01 152.4 38.98 153.33 40 154.19C40.31 154.44 42.85 156.45 43.17 156.7C47.5 159.93 52.05 162.88 56.94 165.17C57.12 165.26 58.58 165.99 58.76 166.08C59.37 166.39 60 166.61 60.61 166.88C60.86 166.99 62.1 167.5 64.33 168.43C66.64 169.21 67.91 169.64 68.17 169.72C68.8 169.92 69.44 170.17 70.1 170.33C70.3 170.38 71.86 170.78 72.06 170.83C77.25 172.29 82.6 173.04 87.95 173.42C88.36 173.44 91.58 173.57 91.98 173.59C92.64 173.64 93.33 173.59 94 173.59C94.2 173.58 95.81 173.54 96.01 173.53C98.69 173.53 101.36 173.15 104.01 172.9C109.31 172.1 114.55 170.97 119.6 169.23C129.73 165.81 139.11 160.34 147.11 153.33C147.8 152.73 148.82 152.81 149.43 153.47C150.04 154.16 149.96 155.18 149.29 155.79C149.24 155.74 149.21 155.76 149.21 155.76C140.71 162.85 130.86 168.26 120.35 171.52Z" id="a8u75vDLwv"></path><path d="M21.45 113.9C17.73 101.16 17.43 87.41 20.74 74.61C23.99 61.81 30.67 49.91 39.94 40.56C42.26 38.24 44.69 36.04 47.31 34.05C48.58 33.03 49.96 32.12 51.28 31.18C51.94 30.71 52.66 30.3 53.35 29.85C54.04 29.41 54.73 28.97 55.45 28.58C61.13 25.33 67.23 22.76 73.55 21.11C67.26 22.9 61.24 25.6 55.67 28.94C54.95 29.33 54.29 29.8 53.6 30.24C52.94 30.68 52.22 31.12 51.56 31.59C50.23 32.56 48.91 33.5 47.67 34.55C45.1 36.56 42.76 38.82 40.49 41.14C31.53 50.55 25.23 62.41 22.31 75C19.33 87.58 19.94 100.91 23.77 113.19C27.63 125.47 34.75 136.64 44.27 145.17C44.94 145.77 45.02 146.82 44.41 147.48C43.8 148.15 42.76 148.23 42.09 147.62C42.12 147.62 42.09 147.62 42.09 147.59C42.09 147.59 42.09 147.59 42.09 147.59C30.82 133.63 23.94 122.4 21.45 113.9Z" id="a2NlD3Hcqx"></path><path d="M11.16 73.51C12.4 68.15 14.25 62.94 16.43 57.92C17.65 55.46 18.75 52.95 20.21 50.6C20.31 50.43 21.13 48.99 21.23 48.81C21.59 48.23 21.9 47.62 22.31 47.07C22.54 46.73 24.4 44.02 24.63 43.68C27.86 39.26 31.39 35.04 35.42 31.37C35.56 31.23 36.76 30.11 36.91 29.96C37.4 29.5 37.95 29.08 38.48 28.64C38.69 28.47 39.74 27.6 41.62 26.05C43.63 24.62 44.74 23.83 44.96 23.67C45.52 23.29 46.07 22.87 46.65 22.49C46.82 22.38 48.21 21.52 48.38 21.41C52.97 18.46 57.93 16.14 62.98 14.15C63.37 14.02 66.43 12.91 66.82 12.77C68.11 12.33 69.44 12.03 70.74 11.64C70.93 11.59 72.5 11.15 72.69 11.09C73.36 10.93 74.02 10.81 74.68 10.68C74.95 10.62 76.27 10.35 78.65 9.85C76.27 10.38 74.95 10.67 74.68 10.73C74.02 10.9 73.36 11.01 72.69 11.2C72.5 11.26 70.96 11.75 70.76 11.81C69.47 12.22 68.17 12.58 66.9 13.05C66.52 13.2 63.5 14.37 63.12 14.51C58.15 16.61 53.27 19.04 48.83 22.07C48.66 22.18 47.31 23.07 47.14 23.18C46.59 23.56 46.07 23.98 45.52 24.39C45.3 24.55 44.22 25.36 42.29 26.82C40.45 28.41 39.43 29.29 39.22 29.47C38.73 29.91 38.2 30.32 37.71 30.82C37.56 30.96 36.41 32.11 36.27 32.25C32.38 35.98 29.01 40.23 25.98 44.62C25.76 44.96 24.02 47.67 23.8 48.01C23.41 48.56 23.11 49.17 22.78 49.75C22.68 49.93 21.91 51.34 21.81 51.51C20.46 53.83 19.44 56.32 18.31 58.74C16.32 63.71 14.64 68.82 13.56 74.06C11.38 84.52 11.33 95.39 13.31 105.82C13.48 106.7 12.9 107.58 12.02 107.75C11.13 107.92 10.25 107.34 10.09 106.45C10.11 106.4 10.09 106.37 10.09 106.37C8.29 95.44 8.62 84.21 11.16 73.51Z" id="a3BVk1qpJ"></path><path d="M105.75 18.49C118.86 20.64 131.39 26.27 141.51 34.79C151.67 43.26 159.53 54.41 163.95 66.8C165.02 69.89 165.99 73.07 166.65 76.27C167.04 77.87 167.26 79.49 167.53 81.1C167.67 81.9 167.73 82.72 167.84 83.52C167.92 84.35 168.03 85.15 168.08 85.98C168.55 92.52 168.25 99.11 167.04 105.54C168.11 99.09 168.28 92.52 167.67 86.03C167.62 85.23 167.48 84.41 167.39 83.61C167.28 82.81 167.2 81.98 167.04 81.18C166.73 79.58 166.48 77.98 166.07 76.4C165.35 73.23 164.33 70.14 163.2 67.08C158.57 54.91 150.59 44.15 140.49 36.06C130.42 27.95 118.14 22.74 105.42 20.91C92.7 19.12 79.51 20.72 67.7 25.63C66.87 25.99 65.91 25.58 65.55 24.75C65.19 23.92 65.6 22.96 66.43 22.6C66.43 22.62 66.46 22.6 66.46 22.6C66.46 22.6 66.46 22.6 66.46 22.6C83.92 18.44 97.01 17.07 105.75 18.49Z" id="ibF1FYkoy"></path><path d="M145.6 25.09C149.9 28.51 153.79 32.43 157.41 36.57C159.09 38.72 160.91 40.81 162.38 43.13C162.49 43.3 163.42 44.67 163.54 44.84C163.92 45.42 164.34 45.97 164.64 46.58C164.85 46.94 166.5 49.79 166.71 50.14C169.3 54.97 171.59 59.96 173.17 65.21C173.23 65.4 173.74 66.97 173.8 67.17C174.02 67.83 174.13 68.49 174.32 69.15C174.39 69.42 174.72 70.74 175.32 73.13C175.75 75.54 175.99 76.89 176.04 77.16C176.15 77.82 176.28 78.51 176.37 79.17C176.39 79.37 176.57 81.01 176.59 81.21C177.28 86.62 177.22 92.08 176.84 97.52C176.79 97.92 176.46 101.17 176.42 101.58C176.26 102.93 175.98 104.25 175.76 105.6C175.72 105.81 175.44 107.42 175.4 107.62C175.26 108.28 175.1 108.94 174.93 109.6C174.87 109.87 174.53 111.18 173.94 113.55C174.47 111.17 174.76 109.84 174.82 109.58C174.96 108.92 175.12 108.25 175.24 107.59C175.27 107.39 175.51 105.78 175.54 105.58C175.73 104.22 175.98 102.9 176.09 101.55C176.12 101.14 176.36 97.9 176.39 97.49C176.64 92.08 176.56 86.67 175.73 81.32C175.7 81.12 175.48 79.51 175.46 79.31C175.35 78.65 175.21 77.98 175.07 77.32C175.02 77.06 174.75 75.73 174.27 73.35C173.62 71.01 173.26 69.72 173.19 69.46C173 68.82 172.86 68.16 172.64 67.53C172.58 67.33 172.05 65.81 171.98 65.62C170.3 60.52 167.92 55.66 165.27 51C165.06 50.65 163.36 47.92 163.15 47.58C162.82 47 162.4 46.47 162.02 45.92C161.9 45.76 160.95 44.45 160.83 44.29C159.34 42.06 157.52 40.07 155.81 38C152.19 34.05 148.3 30.36 144.05 27.13C135.56 20.64 125.79 15.93 115.5 13.22C114.61 13 114.09 12.09 114.31 11.21C114.53 10.32 115.44 9.8 116.32 10.02C116.38 9.94 116.38 9.94 116.41 9.94C127.03 13.03 137.02 18.19 145.6 25.09Z" id="d67pr2Vqo"></path></defs><g><g><g><use xlink:href="#alJ6nV2j9" opacity="1" fill="#b4d099" fill-opacity="1"></use><g><use xlink:href="#alJ6nV2j9" opacity="1" fill-opacity="0" stroke="#000000" stroke-width="1" stroke-opacity="0"></use></g></g><g><use xlink:href="#b3nMJ4m8Hg" opacity="1" fill="#b4d099" fill-opacity="1"></use><g><use xlink:href="#b3nMJ4m8Hg" opacity="1" fill-opacity="0" stroke="#000000" stroke-width="1" stroke-opacity="0"></use></g></g><g><use xlink:href="#c2i0iWEeYO" opacity="1" fill="#b4d099" fill-opacity="1"></use><g><use xlink:href="#c2i0iWEeYO" opacity="1" fill-opacity="0" stroke="#000000" stroke-width="1" stroke-opacity="0"></use></g></g><g><use xlink:href="#e5BMJtIENN" opacity="1" fill="#b4d099" fill-opacity="1"></use><g><use xlink:href="#e5BMJtIENN" opacity="1" fill-opacity="0" stroke="#000000" stroke-width="1" stroke-opacity="0"></use></g></g><g><use xlink:href="#d4a0Nh2SuW" opacity="1" fill="#b4d099" fill-opacity="1"></use><g><use xlink:href="#d4a0Nh2SuW" opacity="1" fill-opacity="0" stroke="#000000" stroke-width="1" stroke-opacity="0"></use></g></g><g><use xlink:href="#e7vjczRD2P" opacity="1" fill="#b4d099" fill-opacity="1"></use><g><use xlink:href="#e7vjczRD2P" opacity="1" fill-opacity="0" stroke="#000000" stroke-width="1" stroke-opacity="0"></use></g></g><g><use xlink:href="#fwlAjvL4x" opacity="1" fill="#b4d099" fill-opacity="1"></use><g><use xlink:href="#fwlAjvL4x" opacity="1" fill-opacity="0" stroke="#000000" stroke-width="1" stroke-opacity="0"></use></g></g><g><use xlink:href="#irM89uBqy" opacity="1" fill="#b4d099" fill-opacity="1"></use><g><use xlink:href="#irM89uBqy" opacity="1" fill-opacity="0" stroke="#000000" stroke-width="1" stroke-opacity="0"></use></g></g><g><use xlink:href="#aJX2fl0v5" opacity="1" fill="#b4d099" fill-opacity="1"></use><g><use xlink:href="#aJX2fl0v5" opacity="1" fill-opacity="0" stroke="#000000" stroke-width="1" stroke-opacity="0"></use></g></g><g><use xlink:href="#b3mX1rAx22" opacity="1" fill="#b4d099" fill-opacity="1"></use><g><use xlink:href="#b3mX1rAx22" opacity="1" fill-opacity="0" stroke="#000000" stroke-width="1" stroke-opacity="0"></use></g></g><g><use xlink:href="#g3N6Xy8cUE" opacity="1" fill="#b4d099" fill-opacity="1"></use><g><use xlink:href="#g3N6Xy8cUE" opacity="1" fill-opacity="0" stroke="#000000" stroke-width="1" stroke-opacity="0"></use></g></g><g><use xlink:href="#aE8sxNSVg" opacity="1" fill="#b4d099" fill-opacity="1"></use><g><use xlink:href="#aE8sxNSVg" opacity="1" fill-opacity="0" stroke="#000000" stroke-width="1" stroke-opacity="0"></use></g></g><g><use xlink:href="#a1wmarRs5S" opacity="1" fill="#b4d099" fill-opacity="1"></use><g><use xlink:href="#a1wmarRs5S" opacity="1" fill-opacity="0" stroke="#000000" stroke-width="1" stroke-opacity="0"></use></g></g><g><use xlink:href="#b3uKgapJo" opacity="1" fill="#b4d099" fill-opacity="1"></use><g><use xlink:href="#b3uKgapJo" opacity="1" fill-opacity="0" stroke="#000000" stroke-width="1" stroke-opacity="0"></use></g></g><g><use xlink:href="#b22TQViFYC" opacity="1" fill="#b4d099" fill-opacity="1"></use><g><use xlink:href="#b22TQViFYC" opacity="1" fill-opacity="0" stroke="#000000" stroke-width="1" stroke-opacity="0"></use></g></g><g><use xlink:href="#i1cnvsraJ7" opacity="1" fill="#b4d099" fill-opacity="1"></use><g><use xlink:href="#i1cnvsraJ7" opacity="1" fill-opacity="0" stroke="#000000" stroke-width="1" stroke-opacity="0"></use></g></g><g><use xlink:href="#h6kyd2q8M" opacity="1" fill="#b4d099" fill-opacity="1"></use><g><use xlink:href="#h6kyd2q8M" opacity="1" fill-opacity="0" stroke="#000000" stroke-width="1" stroke-opacity="0"></use></g></g><g><use xlink:href="#hgMbRwWh8" opacity="1" fill="#dc913a" fill-opacity="1"></use><g><use xlink:href="#hgMbRwWh8" opacity="1" fill-opacity="0" stroke="#000000" stroke-width="1" stroke-opacity="0"></use></g></g><g><use xlink:href="#aiRe76ckE" opacity="1" fill="#3359a1" fill-opacity="1"></use><g><use xlink:href="#aiRe76ckE" opacity="1" fill-opacity="0" stroke="#000000" stroke-width="1" stroke-opacity="0"></use></g></g><g><use xlink:href="#cbDtI2kyf" opacity="1" fill="#b4d099" fill-opacity="1"></use><g><use xlink:href="#cbDtI2kyf" opacity="1" fill-opacity="0" stroke="#000000" stroke-width="1" stroke-opacity="0"></use></g></g><g><use xlink:href="#a6ASk23kp4" opacity="1" fill="#b4d099" fill-opacity="1"></use><g><use xlink:href="#a6ASk23kp4" opacity="1" fill-opacity="0" stroke="#000000" stroke-width="1" stroke-opacity="0"></use></g></g><g><use xlink:href="#a8u75vDLwv" opacity="1" fill="#b4d099" fill-opacity="1"></use><g><use xlink:href="#a8u75vDLwv" opacity="1" fill-opacity="0" stroke="#000000" stroke-width="1" stroke-opacity="0"></use></g></g><g><use xlink:href="#a2NlD3Hcqx" opacity="1" fill="#3359a1" fill-opacity="1"></use><g><use xlink:href="#a2NlD3Hcqx" opacity="1" fill-opacity="0" stroke="#000000" stroke-width="1" stroke-opacity="0"></use></g></g><g><use xlink:href="#a3BVk1qpJ" opacity="1" fill="#3359a1" fill-opacity="1"></use><g><use xlink:href="#a3BVk1qpJ" opacity="1" fill-opacity="0" stroke="#000000" stroke-width="1" stroke-opacity="0"></use></g></g><g><use xlink:href="#ibF1FYkoy" opacity="1" fill="#dc913a" fill-opacity="1"></use><g><use xlink:href="#ibF1FYkoy" opacity="1" fill-opacity="0" stroke="#000000" stroke-width="1" stroke-opacity="0"></use></g></g><g><use xlink:href="#d67pr2Vqo" opacity="1" fill="#dc913a" fill-opacity="1"></use><g><use xlink:href="#d67pr2Vqo" opacity="1" fill-opacity="0" stroke="#000000" stroke-width="1" stroke-opacity="0"></use></g></g></g></g></svg>